<svg width="149px" height="52px" viewBox="0 0 149 52" version="1.1" xmlns="http://www.w3.org/2000/svg" xmlns:xlink="http://www.w3.org/1999/xlink"><defs><style>.cls-1{fill:#fff;}.cls-2{fill:#00b299;}</style></defs><path class="cls-1" d="M57.12,23.56V5.64h4.35V23.56Z"/><path class="cls-1" d="M68.91,18.22c.07,1,.78,1.75,2.21,1.75,1.22,0,2.21-.58,2.21-1.62a1.74,1.74,0,0,0,0-.39,3.21,3.21,0,0,0-1.75-1.09l-2.1-.7c-4-1.09-4.66-3.64-4.69-5.28a5,5,0,0,1,1.77-3.95A6.62,6.62,0,0,1,71,5.4a6.47,6.47,0,0,1,4.45,1.51A5.12,5.12,0,0,1,77.18,11H72.83c0-1.12-.62-1.67-1.87-1.67s-1.9.58-1.9,1.43c0,.65.55,1.12,1.67,1.46l2,.65c3.3,1,5,2.83,5,5.46a4.88,4.88,0,0,1-1.07,3.17,6.87,6.87,0,0,1-5.56,2.29,7.2,7.2,0,0,1-4.81-1.51,5,5,0,0,1-1.8-4.06Z"/><path class="cls-1" d="M92.57,23.56H80.71V5.64H92.34v3.8H85.06v3.43h6.39v3.71H85.06v3.18h7.51Z"/><path class="cls-1" d="M99.15,9.44H94.52V5.64h13.6v3.8H103.5V23.56H99.15Z"/><path class="cls-1" d="M69.11,33.86A4.69,4.69,0,0,0,65.34,32a4.49,4.49,0,0,0-3.43,1.51,5.22,5.22,0,0,0-1.4,3.66,5.33,5.33,0,0,0,1.4,3.69,4.5,4.5,0,0,0,3.43,1.54c2.37,0,3.72-.81,4.11-2.4h-5V36.51h9.76c0,3.31-.81,5.75-2.4,7.39a8.53,8.53,0,0,1-6.44,2.44,9.15,9.15,0,0,1-9.24-9.18,8.8,8.8,0,0,1,2.68-6.5,9.3,9.3,0,0,1,13.55.47Z"/><path class="cls-1" d="M81.13,46.11H76.79V28.19H84.2A5.84,5.84,0,0,1,88.75,30a6,6,0,0,1,1.59,4.22,6.24,6.24,0,0,1-1.12,3.64A5.18,5.18,0,0,1,86,39.92l4.38,6.19h-5l-3.85-6h-.39Zm0-14.12v4.4H84c2.6.13,2.6-4.56,0-4.4Z"/><path class="cls-1" d="M95.12,30.66A8.86,8.86,0,0,1,101.6,28a9.18,9.18,0,0,1,9.15,9.2,8.83,8.83,0,0,1-2.68,6.5,9.13,9.13,0,0,1-12.92,0,9.26,9.26,0,0,1,0-13ZM105,40.57a4.83,4.83,0,0,0,0-6.81,4.48,4.48,0,0,0-3.38-1.43,4.4,4.4,0,0,0-3.36,1.43,4.89,4.89,0,0,0,0,6.81A4.48,4.48,0,0,0,101.6,42a4.54,4.54,0,0,0,3.38-1.4Z"/><path class="cls-1" d="M113.53,28.19h4.38v11.4a2.48,2.48,0,0,0,.8,1.92,2.81,2.81,0,0,0,1.9.75,2.7,2.7,0,0,0,1.87-.75,2.47,2.47,0,0,0,.83-1.92V28.19h4.38v11.4a6.31,6.31,0,0,1-2.11,4.89,7.19,7.19,0,0,1-5,1.87,7.3,7.3,0,0,1-5-1.87,6.36,6.36,0,0,1-2.08-4.89V28.19Z"/><path class="cls-1" d="M135.82,46.11h-4.34V28.19h7.41A5.82,5.82,0,0,1,143.44,30a6.38,6.38,0,0,1,0,8.43,5.81,5.81,0,0,1-4.55,1.74h-3.07v6Zm0-14.12v4.39h2.86c2.6.13,2.6-4.55,0-4.39Z"/><rect class="cls-1" x="10.38" y="12.97" width="5.19" height="5.19"/><rect class="cls-2" x="10.35" y="23.33" width="5.19" height="15.57"/><polygon class="cls-2" points="20.73 12.95 41.49 12.95 41.49 18.14 25.92 18.14 25.92 33.71 36.3 33.71 36.3 28.52 31.11 28.52 31.11 23.33 41.49 23.33 41.49 38.9 20.73 38.9 20.73 12.95"/><path class="cls-2" d="M0,0V51.9H51.9V0ZM46.71,46.71H5.19V5.19H46.71Z"/></svg>